<?xml version="1.0" encoding="iso-8859-1"?>
<!-- Generator: Adobe Illustrator 19.1.0, SVG Export Plug-In . SVG Version: 6.00 Build 0)  -->
<svg version="1.1" id="Capa_1" xmlns="http://www.w3.org/2000/svg" xmlns:xlink="http://www.w3.org/1999/xlink" x="0px" y="0px"
	 viewBox="0 0 297.667 297.667" style="enable-background:new 0 0 297.667 297.667;" xml:space="preserve">
<g>
	<path style="fill:#B4B4FF;" d="M22.047,240.771H227c16.054,0,30.521-7,40.586-18H32.724L22.047,240.771z"/>
	<path d="M264.083,69.115l8.198-16.726c1.929-3.976,0.311-8.762-3.663-10.689c-3.975-1.929-8.741-0.27-10.669,3.705l-24.49,50.5
		c-1.929,3.976-0.264,8.762,3.71,10.689c1.125,0.546,2.317,0.805,3.489,0.805c2.969,0,5.823-1.66,7.204-4.51l9.19-19.285
		c15.439,10.116,24.614,27.097,24.614,45.793v56c0,7.525-1.173,14.374-3.897,21.374H28.167c-2.824,0-5.44,1.428-6.881,3.857
		L1.119,244.597c-1.467,2.473-1.493,5.588-0.07,8.086c1.423,2.498,4.076,4.088,6.951,4.088h219
		c39.149,0,70.667-32.087,70.667-71.374v-56C297.667,104.522,285.063,82.007,264.083,69.115z M227,240.771H22.047l10.677-18h234.862
		C257.521,233.771,243.054,240.771,227,240.771z"/>
</g>
<g>
</g>
<g>
</g>
<g>
</g>
<g>
</g>
<g>
</g>
<g>
</g>
<g>
</g>
<g>
</g>
<g>
</g>
<g>
</g>
<g>
</g>
<g>
</g>
<g>
</g>
<g>
</g>
<g>
</g>
</svg>
